<?xml version="1.0" standalone="no"?>
<!DOCTYPE svg PUBLIC "-//W3C//DTD SVG 20010904//EN"
 "http://www.w3.org/TR/2001/REC-SVG-20010904/DTD/svg10.dtd">
<svg version="1.0" xmlns="http://www.w3.org/2000/svg"
 width="168.000000pt" height="168.000000pt" viewBox="0 0 168.000000 168.000000"
 preserveAspectRatio="xMidYMid meet">
<metadata>
Created by potrace 1.14, written by Peter Selinger 2001-2017
</metadata>
<g transform="translate(0.000000,168.000000) scale(0.100000,-0.100000)"
fill="#000000" stroke="none">
<path d="M815 1644 c-27 -20 -74 -32 -184 -44 -51 -6 -115 -20 -142 -32 -54
-22 -99 -68 -99 -99 0 -15 -7 -19 -32 -19 -39 0 -106 -30 -129 -56 -10 -10
-41 -68 -70 -129 -30 -60 -70 -126 -89 -146 -33 -35 -35 -40 -32 -94 2 -31 -3
-109 -13 -173 -14 -103 -14 -122 -2 -157 l15 -40 -5 60 c-3 33 2 114 10 180 8
66 13 137 10 158 -6 45 10 49 28 5 10 -25 10 -52 1 -137 -22 -198 -13 -268 38
-304 17 -12 18 -18 8 -50 -22 -71 -2 -106 140 -240 34 -32 69 -76 78 -98 16
-36 21 -39 57 -39 28 0 72 -16 148 -54 126 -63 179 -75 244 -53 42 13 48 13
83 -5 66 -34 119 -21 298 76 28 15 70 30 93 33 37 5 44 10 57 42 8 20 55 77
103 126 105 106 123 138 120 206 -3 43 1 53 23 72 54 45 60 97 31 268 -12 72
-14 111 -7 137 9 35 8 39 -33 75 -30 27 -57 69 -93 142 -57 117 -95 155 -163
164 -34 5 -42 11 -48 34 -17 64 -72 92 -217 111 -117 16 -179 35 -188 61 -5
12 -12 10 -40 -15 -19 -16 -36 -30 -37 -30 -56 -2 -241 -35 -271 -49 -43 -19
-96 -72 -96 -97 0 -9 -11 -14 -30 -14 -38 0 -90 -21 -112 -46 -9 -11 -39 -65
-67 -121 -54 -110 -108 -180 -124 -164 -6 6 0 21 18 43 16 18 50 78 76 133 27
55 54 107 61 116 24 29 67 50 115 57 37 6 49 12 52 27 12 67 90 109 232 125
52 6 110 15 129 20 35 10 104 50 85 50 -5 -1 -19 -7 -30 -16z m120 -79 c33 -8
75 -15 95 -15 45 -1 115 -17 158 -37 34 -16 62 -57 62 -93 0 -16 4 -19 24 -14
29 7 86 -16 116 -47 12 -13 42 -64 67 -114 25 -49 63 -109 86 -132 40 -42 40
-43 38 -109 -1 -36 5 -109 15 -161 20 -114 11 -158 -40 -199 -31 -25 -33 -29
-23 -60 18 -59 -13 -116 -117 -219 -50 -50 -97 -104 -105 -122 -10 -24 -21
-33 -47 -37 -18 -4 -86 -34 -150 -66 -135 -70 -191 -78 -240 -36 -28 23 -28
23 -58 5 -58 -35 -119 -26 -246 36 -62 31 -131 58 -154 61 -37 6 -45 11 -66
50 -13 25 -59 77 -102 116 -44 39 -86 84 -94 99 -18 36 -18 82 1 119 15 28 14
30 -4 30 -29 0 -58 44 -66 98 -3 27 1 100 9 168 9 66 14 134 10 150 -5 24 0
36 26 64 17 19 54 79 81 134 26 56 54 108 61 116 26 32 64 50 104 50 36 0 43
3 48 24 18 73 85 107 245 126 89 10 154 30 167 52 3 5 13 3 23 -6 9 -8 43 -22
76 -31z"/>
<path d="M809 1460 l-5 -35 -13 28 c-8 15 -18 27 -23 27 -11 0 -10 -78 2 -85
6 -4 8 7 4 27 -5 32 -5 32 11 13 9 -11 20 -27 25 -35 14 -24 18 -8 10 45 -6
48 -7 48 -11 15z"/>
<path d="M860 1471 c-21 -40 -6 -81 31 -81 23 0 30 13 31 51 2 46 -42 67 -62
30z m48 -35 c-4 -40 -34 -48 -44 -12 -7 30 11 57 32 49 10 -4 14 -16 12 -37z"/>
<path d="M700 1453 c-11 -23 -14 -25 -17 -10 -3 9 -8 17 -12 17 -5 0 -3 -21 3
-47 6 -30 12 -40 14 -28 6 32 19 39 31 16 7 -12 16 -21 22 -21 6 0 1 13 -10
28 -12 18 -18 37 -14 50 8 30 -1 27 -17 -5z"/>
<path d="M951 1436 c-14 -57 -15 -53 14 -58 14 -3 25 -1 25 3 0 5 -7 9 -16 9
-14 0 -16 7 -11 45 8 57 3 58 -12 1z"/>
<path d="M598 1443 c-22 -5 -22 -11 -3 -57 16 -37 29 -43 55 -25 12 9 11 10
-7 6 -31 -7 -41 12 -17 31 18 14 18 14 -3 9 -28 -6 -32 17 -5 32 18 11 10 12
-20 4z"/>
<path d="M1030 1431 c-24 -46 0 -92 38 -72 25 13 37 58 21 77 -16 20 -47 17
-59 -5z m53 -3 c7 -20 -11 -58 -28 -58 -21 0 -29 24 -15 49 12 23 35 28 43 9z"/>
<path d="M523 1408 c-24 -12 -32 -31 -10 -22 8 3 21 -9 32 -30 11 -19 21 -34
23 -32 2 2 -4 18 -12 34 -9 17 -13 38 -10 46 7 18 7 18 -23 4z"/>
<path d="M1126 1394 c-28 -28 -15 -84 21 -84 20 0 36 37 18 43 -9 4 -12 1 -8
-9 3 -9 -2 -14 -16 -14 -25 0 -28 26 -7 55 14 19 15 19 35 1 22 -20 30 -9 9
12 -16 16 -33 15 -52 -4z"/>
<path d="M1196 1330 c-14 -22 -23 -40 -19 -40 11 0 57 69 51 75 -3 3 -17 -13
-32 -35z"/>
<path d="M440 1355 c0 -6 14 -26 30 -45 17 -19 26 -26 21 -15 -16 30 -51 71
-51 60z"/>
<path d="M387 1313 c-25 -24 14 -88 49 -81 28 5 41 35 23 53 -14 15 -17 14
-30 -1 -12 -16 -12 -17 4 -11 14 5 18 3 15 -10 -4 -23 -23 -27 -42 -8 -22 23
-20 44 7 55 21 8 21 9 1 9 -11 1 -24 -2 -27 -6z"/>
<path d="M1257 1292 c-34 -36 -35 -53 -1 -21 22 21 24 21 19 4 -7 -20 -6 -20
9 -1 17 21 21 46 8 46 -5 0 -20 -13 -35 -28z"/>
<path d="M1046 1284 c-9 -24 -2 -26 12 -4 7 11 8 20 3 20 -5 0 -12 -7 -15 -16z"/>
<path d="M656 1276 c6 -15 -31 -46 -54 -46 -20 0 -9 23 19 37 13 7 17 13 9 13
-8 0 -31 -17 -52 -37 l-38 -37 0 34 -1 35 -19 -24 c-11 -13 -20 -35 -19 -50 1
-23 2 -23 9 7 10 42 20 53 20 21 0 -14 -8 -35 -17 -49 l-17 -24 -11 28 c-9 22
-13 25 -18 12 -4 -9 -2 -16 3 -16 13 0 13 -47 1 -55 -5 -3 -12 7 -14 22 -2 18
-5 10 -6 -19 0 -27 -5 -48 -10 -48 -5 0 -11 -15 -15 -32 -5 -26 -9 -30 -16
-18 -6 10 -7 2 -3 -25 l6 -40 -21 19 c-18 16 -23 16 -27 4 -3 -8 -1 -25 5 -39
10 -24 10 -24 5 4 -6 29 9 38 19 11 11 -28 7 -56 -6 -48 -10 6 -10 4 0 -7 6
-7 12 -22 12 -33 0 -18 -1 -18 -18 -3 -24 22 -32 21 -32 -4 0 -25 17 -58 41
-82 19 -18 26 -47 11 -47 -4 0 -13 5 -19 11 -6 6 -16 10 -22 8 -17 -6 19 -69
49 -84 14 -7 32 -21 39 -29 12 -14 9 -16 -20 -16 l-34 -1 28 -24 c15 -14 33
-25 40 -25 7 1 -1 8 -18 17 -23 13 -26 18 -13 21 25 5 61 -17 54 -34 -3 -8 -2
-12 4 -9 5 3 22 -7 38 -22 47 -44 68 -60 91 -68 12 -3 21 -11 21 -16 0 -5 3
-8 8 -7 4 2 32 -7 62 -19 30 -13 68 -27 83 -33 l28 -10 -36 -31 c-49 -43 -38
-47 19 -8 l46 33 40 -33 c51 -41 63 -35 16 7 -39 34 -39 34 19 52 22 7 57 21
79 32 27 14 41 17 49 9 6 -6 22 -11 35 -11 l23 0 -27 35 c-14 19 -24 41 -21
49 4 10 1 13 -9 9 -8 -3 -18 -18 -21 -33 -4 -23 -16 -33 -62 -53 -116 -51
-120 -51 -210 -17 -45 17 -87 38 -95 46 -8 8 -21 14 -29 14 -15 0 -27 20 -27
46 0 20 19 7 30 -20 6 -14 9 -16 9 -5 1 8 -9 26 -21 39 l-23 25 -5 -34 -5 -33
-27 25 c-16 15 -28 35 -28 47 0 29 17 25 28 -7 6 -16 11 -21 11 -13 1 9 -7 26
-16 40 l-17 24 -13 -30 -12 -29 -1 46 c0 25 -7 54 -15 65 -8 10 -15 14 -15 7
0 -6 4 -15 10 -18 6 -3 10 -22 10 -41 0 -44 -20 -35 -21 9 0 26 -2 28 -8 12
-8 -19 -8 -19 -18 0 -8 14 -7 25 4 42 9 13 13 26 10 29 -3 3 -8 -4 -12 -15 -3
-12 -11 -21 -16 -21 -16 0 -10 37 12 64 12 15 19 29 16 32 -2 3 -14 -10 -25
-28 l-21 -32 -6 27 c-6 22 -2 33 19 54 25 25 44 69 34 79 -3 2 -17 -5 -31 -17
l-27 -20 0 21 c0 12 14 35 30 50 17 15 30 35 30 44 0 20 -10 20 -38 0 -19 -13
-22 -13 -22 0 0 18 27 46 44 46 7 0 23 12 37 26 l24 27 -37 -6 c-21 -3 -38 -3
-38 1 1 17 17 30 46 36 28 6 79 46 59 46 -4 0 -13 -6 -19 -14 -14 -18 -56 -31
-56 -17 0 6 12 14 26 17 14 4 21 10 15 13 -16 10 56 81 82 81 20 0 67 39 67
56 0 8 -4 14 -10 14 -5 0 -7 -6 -4 -14z m-165 -240 c-17 -20 -51 -27 -51 -11
0 13 17 21 49 24 10 1 11 -2 2 -13z m-30 -94 c-13 -24 -41 -37 -41 -18 0 13
41 47 48 41 2 -2 -1 -12 -7 -23z m-75 -89 c7 -10 13 -27 13 -38 0 -19 -1 -19
-19 4 -19 22 -27 51 -14 51 4 0 13 -8 20 -17z m84 8 c0 -6 -11 -23 -25 -38
-28 -32 -35 -12 -9 25 16 23 34 29 34 13z m-45 -179 c-8 -8 -55 44 -55 61 0 7
14 -3 31 -21 17 -19 27 -37 24 -40z"/>
<path d="M1078 1265 c-35 -30 -35 -35 1 -35 34 0 40 7 32 37 l-6 22 -27 -24z"/>
<path d="M1303 1265 c-12 -9 -28 -14 -34 -13 -7 2 -15 -6 -17 -16 -4 -17 -2
-17 27 3 36 26 40 18 9 -18 -13 -14 -6 -10 15 8 50 46 50 71 0 36z"/>
<path d="M322 1238 c-17 -17 -15 -42 6 -61 23 -21 46 -22 63 -1 9 11 10 20 2
32 -11 19 -25 20 -31 3 -2 -6 3 -8 12 -5 11 4 16 1 16 -10 0 -25 -28 -31 -50
-11 -24 21 -26 45 -5 45 8 0 15 5 15 10 0 14 -13 13 -28 -2z"/>
<path d="M1137 1223 c-23 -24 -29 -26 -37 -13 -5 8 -10 10 -10 4 0 -26 59 -49
76 -30 5 6 7 24 4 39 l-5 28 -28 -28z"/>
<path d="M1330 1212 c-23 -20 -31 -34 -27 -45 9 -25 42 -21 74 9 29 26 12 23
-19 -4 -10 -8 -25 -12 -35 -7 -16 6 -14 10 15 36 43 39 36 48 -8 11z"/>
<path d="M576 1184 c-11 -8 -16 -14 -10 -14 13 0 39 18 34 24 -3 2 -14 -2 -24
-10z"/>
<path d="M843 1120 c0 -41 2 -58 4 -37 2 20 2 54 0 75 -2 20 -4 3 -4 -38z"/>
<path d="M1186 1162 c-38 -26 -38 -27 -15 -32 16 -4 23 -13 22 -26 -2 -16 -1
-16 9 4 6 12 14 22 17 22 3 0 7 14 8 30 1 17 1 30 0 29 -1 0 -20 -12 -41 -27z"/>
<path d="M286 1155 c10 -8 24 -14 29 -14 6 0 1 6 -9 14 -11 8 -24 15 -30 15
-5 0 -1 -7 10 -15z"/>
<path d="M1375 1135 c-33 -21 -35 -24 -14 -19 34 7 49 -14 24 -33 -25 -18 -13
-16 30 4 19 9 35 21 35 25 0 5 -9 4 -20 -2 -28 -15 -40 15 -14 35 32 24 1 16
-41 -10z"/>
<path d="M695 1105 c15 -27 32 -54 37 -60 16 -15 -28 67 -47 90 -9 11 -5 -2
10 -30z"/>
<path d="M998 1128 c-23 -35 -52 -94 -40 -83 13 14 65 105 59 105 -3 0 -11
-10 -19 -22z"/>
<path d="M285 1131 l-40 -7 35 -22 c19 -12 40 -22 45 -22 6 1 -3 8 -20 18
l-30 17 45 5 c33 4 40 7 27 13 -10 4 -19 6 -20 6 -1 -1 -20 -5 -42 -8z"/>
<path d="M823 1095 c0 -22 2 -30 4 -17 2 12 2 30 0 40 -3 9 -5 -1 -4 -23z"/>
<path d="M863 1095 c0 -22 2 -30 4 -17 2 12 2 30 0 40 -3 9 -5 -1 -4 -23z"/>
<path d="M1245 1105 c-16 -14 -36 -25 -43 -25 -7 0 -10 -4 -7 -10 3 -5 15 -10
27 -10 15 0 18 -4 13 -17 -5 -15 -4 -16 6 -5 7 6 22 12 34 13 11 0 15 3 8 5
-7 3 -9 18 -6 40 3 19 4 34 2 34 -2 -1 -17 -12 -34 -25z"/>
<path d="M404 1095 c-3 -14 -4 -29 0 -32 3 -4 6 4 6 16 0 12 4 19 10 16 6 -3
10 -2 10 4 0 23 -20 20 -26 -4z"/>
<path d="M730 1095 c0 -5 5 -17 10 -25 5 -8 10 -10 10 -5 0 6 -5 17 -10 25 -5
8 -10 11 -10 5z"/>
<path d="M946 1085 c-9 -26 -7 -32 5 -12 6 10 9 21 6 23 -2 3 -7 -2 -11 -11z"/>
<path d="M230 1085 c0 -6 69 -35 84 -35 6 0 -9 9 -33 20 -46 21 -51 23 -51 15z"/>
<path d="M680 1076 c0 -2 7 -9 15 -16 13 -11 14 -10 9 4 -5 14 -24 23 -24 12z"/>
<path d="M986 1064 c-5 -14 -4 -15 9 -4 17 14 19 20 6 20 -5 0 -12 -7 -15 -16z"/>
<path d="M206 1038 c-8 -33 -7 -45 3 -29 7 11 15 11 45 1 21 -7 40 -10 43 -7
3 3 -14 11 -37 17 -30 8 -40 15 -36 26 3 8 2 14 -3 14 -5 0 -11 -10 -15 -22z"/>
<path d="M1393 1039 c14 -8 17 -18 12 -36 l-6 -25 40 29 c22 15 41 31 41 36 0
4 -24 7 -52 7 -43 -1 -49 -3 -35 -11z m52 -9 c-3 -5 -10 -10 -16 -10 -5 0 -9
5 -9 10 0 6 7 10 16 10 8 0 12 -4 9 -10z"/>
<path d="M695 1016 c1 -11 6 -20 11 -18 5 2 8 10 6 19 -2 10 1 12 10 7 7 -4 9
-3 5 1 -15 18 -33 13 -32 -9z"/>
<path d="M965 1029 c-3 -4 2 -6 10 -5 21 3 28 13 10 13 -9 0 -18 -4 -20 -8z"/>
<path d="M1280 1019 c-19 -4 -38 -5 -42 -3 -14 9 -9 -9 8 -27 12 -14 13 -21 3
-37 -10 -16 -9 -24 7 -45 10 -14 29 -27 42 -30 16 -3 20 -1 12 8 -7 8 -4 17
10 30 22 20 27 41 8 28 -7 -4 -28 -9 -46 -10 -37 -2 -40 16 -5 32 19 8 49 54
41 60 -2 1 -19 -2 -38 -6z"/>
<path d="M560 1016 c0 -3 23 -17 50 -32 35 -19 47 -30 38 -36 -9 -5 -10 -8 -1
-8 30 0 19 21 -27 49 -50 31 -60 35 -60 27z"/>
<path d="M1087 1001 c-45 -29 -45 -35 1 -12 23 12 42 24 42 26 0 9 -14 4 -43
-14z"/>
<path d="M621 1007 c2 -1 13 -9 24 -17 19 -14 19 -14 6 3 -7 9 -18 17 -24 17
-6 0 -8 -1 -6 -3z"/>
<path d="M666 1000 c5 -8 9 -18 9 -22 0 -3 3 -9 7 -13 3 -4 5 0 4 9 -1 9 -8
22 -16 29 -10 10 -11 9 -4 -3z"/>
<path d="M976 998 c3 -5 10 -6 15 -3 13 9 11 12 -6 12 -8 0 -12 -4 -9 -9z"/>
<path d="M1013 998 c-11 -19 -13 -39 -1 -32 5 3 7 9 4 12 -3 3 -1 11 5 19 6 7
9 13 6 13 -3 0 -9 -6 -14 -12z"/>
<path d="M1039 993 c-13 -17 -13 -17 6 -3 11 8 22 16 24 17 2 2 0 3 -6 3 -6 0
-17 -8 -24 -17z"/>
<path d="M1443 973 c-47 -6 -41 -18 9 -18 24 0 43 6 46 13 2 6 -2 11 -10 10
-7 0 -28 -3 -45 -5z"/>
<path d="M600 966 c0 -2 7 -7 16 -10 8 -3 12 -2 9 4 -6 10 -25 14 -25 6z"/>
<path d="M793 955 c-106 -46 -65 -215 52 -215 119 0 158 171 50 216 -42 17
-61 17 -102 -1z m69 -36 c-12 -9 -22 -23 -22 -31 0 -8 4 -6 11 5 7 12 17 16
30 12 11 -4 19 -3 18 2 -4 25 3 25 16 -1 19 -36 19 -44 -2 -49 -14 -4 -12 -5
5 -6 25 -1 31 -21 6 -21 -9 0 -14 -6 -11 -13 3 -7 -1 -21 -9 -31 -16 -22 -44
-15 -51 14 -3 11 -9 17 -14 15 -4 -3 -6 -12 -3 -19 3 -7 -2 -16 -10 -19 -9 -4
-16 -2 -16 3 0 5 -7 7 -15 4 -10 -4 -20 5 -30 30 -17 41 -19 66 -5 66 6 0 10
-8 10 -17 0 -14 3 -13 16 5 9 13 13 26 10 29 -13 13 27 42 57 41 l30 -1 -21
-18z m-2 -149 c0 -5 -4 -10 -10 -10 -5 0 -10 5 -10 10 0 6 5 10 10 10 6 0 10
-4 10 -10z"/>
<path d="M821 884 c0 -11 3 -14 6 -6 3 7 2 16 -1 19 -3 4 -6 -2 -5 -13z"/>
<path d="M859 867 c-10 -19 -10 -20 2 -11 8 6 21 13 28 16 12 3 12 6 -2 11
-11 4 -21 -1 -28 -16z"/>
<path d="M796 851 c-4 -6 -2 -11 3 -11 18 0 12 -18 -6 -23 -17 -4 -17 -5 0 -6
10 0 20 6 24 15 7 19 -11 41 -21 25z"/>
<path d="M885 811 c-3 -5 -1 -12 5 -16 5 -3 10 1 10 9 0 18 -6 21 -15 7z"/>
<path d="M1027 963 c-8 -17 -1 -37 13 -40 12 -4 12 -3 1 5 -11 8 -11 10 0 15
11 4 11 6 1 6 -7 1 -10 6 -7 11 3 6 4 10 1 10 -3 0 -7 -3 -9 -7z"/>
<path d="M1065 960 c-3 -6 1 -7 9 -4 18 7 21 14 7 14 -6 0 -13 -4 -16 -10z"/>
<path d="M1424 935 c-18 -13 -16 -14 21 -16 l40 -1 -34 -9 c-44 -13 -34 -21
14 -11 50 10 59 32 13 32 -25 0 -29 3 -18 10 13 9 13 10 -1 10 -8 0 -24 -7
-35 -15z"/>
<path d="M184 932 c4 -7 14 -12 22 -12 8 0 14 -7 14 -15 0 -10 -10 -15 -27
-15 -22 0 -25 -2 -13 -10 8 -5 33 -9 55 -8 23 0 30 3 18 5 -15 3 -23 12 -23
25 0 15 5 19 20 15 11 -3 20 -1 20 4 0 5 -13 9 -29 9 -16 0 -37 3 -47 7 -12 4
-15 3 -10 -5z"/>
<path d="M583 873 c9 -2 23 -2 30 0 6 3 -1 5 -18 5 -16 0 -22 -2 -12 -5z"/>
<path d="M1073 873 c9 -2 25 -2 35 0 9 3 1 5 -18 5 -19 0 -27 -2 -17 -5z"/>
<path d="M1455 860 l40 -6 -37 -8 c-39 -8 -43 -26 -7 -26 11 0 18 4 15 9 -3 5
8 11 24 15 50 9 34 26 -22 25 -53 -2 -53 -2 -13 -9z"/>
<path d="M537 853 c18 -2 50 -2 70 0 21 2 7 4 -32 4 -38 0 -55 -2 -38 -4z"/>
<path d="M1077 853 c18 -2 50 -2 70 0 21 2 7 4 -32 4 -38 0 -55 -2 -38 -4z"/>
<path d="M1256 831 c9 -16 28 -31 40 -34 13 -2 21 0 18 5 -3 5 1 17 9 26 14
16 13 17 -9 18 -13 1 -36 5 -50 8 l-26 7 18 -30z"/>
<path d="M213 833 c-24 -8 -43 -18 -43 -22 0 -8 68 -31 91 -31 10 1 9 4 -3 11
-10 5 -18 15 -18 21 0 6 8 17 18 24 22 17 8 16 -45 -3z m17 -23 c0 -5 -7 -10
-15 -10 -8 0 -15 5 -15 10 0 6 7 10 15 10 8 0 15 -4 15 -10z"/>
<path d="M593 833 c9 -2 25 -2 35 0 9 3 1 5 -18 5 -19 0 -27 -2 -17 -5z"/>
<path d="M1063 833 c9 -2 25 -2 35 0 9 3 1 5 -18 5 -19 0 -27 -2 -17 -5z"/>
<path d="M1480 810 c0 -5 -12 -10 -27 -11 -16 0 -22 -3 -15 -6 19 -7 82 6 82
17 0 6 -9 10 -20 10 -11 0 -20 -4 -20 -10z"/>
<path d="M1247 793 c-12 -12 -7 -34 14 -64 21 -31 42 -39 33 -14 -4 9 0 15 10
15 18 0 40 35 32 53 -2 7 -5 4 -5 -7 -1 -14 -6 -17 -23 -12 -13 3 -31 6 -42 6
-12 0 -16 5 -12 15 6 16 3 19 -7 8z"/>
<path d="M1428 769 c6 -7 12 -21 12 -30 0 -10 -6 -20 -12 -22 -19 -8 33 -8 60
-1 32 9 23 25 -29 46 -24 11 -38 14 -31 7z m50 -28 c11 -7 11 -9 -1 -14 -16
-6 -27 0 -27 15 0 10 11 10 28 -1z"/>
<path d="M261 744 c-1 -16 -11 -24 -43 -32 l-43 -11 45 5 c53 6 53 6 47 36 -4
21 -4 21 -6 2z"/>
<path d="M604 744 c-18 -14 -18 -14 6 -3 31 14 36 19 24 19 -6 0 -19 -7 -30
-16z"/>
<path d="M672 749 c2 -6 -3 -14 -11 -17 -9 -3 -11 0 -6 7 4 7 -16 1 -43 -13
-28 -14 -54 -31 -58 -38 -4 -7 14 0 40 16 26 15 50 25 53 22 3 -3 -2 -8 -11
-12 -9 -3 -16 -11 -16 -17 0 -5 8 -3 18 6 22 20 36 22 26 5 -4 -8 -3 -10 2 -5
5 5 9 12 9 15 0 4 4 12 8 19 4 6 3 15 -3 18 -6 4 -9 1 -8 -6z"/>
<path d="M1051 756 c2 -2 15 -9 29 -15 24 -11 24 -11 6 3 -16 13 -49 24 -35
12z"/>
<path d="M1036 739 c5 -8 2 -11 -8 -6 -17 6 -19 -16 -3 -30 4 -4 5 -2 1 5 -10
17 4 15 26 -5 10 -9 18 -11 18 -6 0 6 -7 14 -16 17 -9 4 -14 9 -11 12 3 3 27
-7 53 -22 26 -16 44 -23 40 -16 -4 7 -30 24 -58 38 -27 14 -47 20 -42 13z"/>
<path d="M726 692 c-3 -5 1 -9 9 -9 8 0 12 4 9 9 -3 4 -7 8 -9 8 -2 0 -6 -4
-9 -8z"/>
<path d="M946 692 c-3 -5 1 -9 9 -9 8 0 12 4 9 9 -3 4 -7 8 -9 8 -2 0 -6 -4
-9 -8z"/>
<path d="M1210 693 c0 -5 5 -15 10 -23 7 -12 4 -16 -18 -20 -19 -4 -28 -12
-31 -30 -1 -14 -8 -28 -15 -32 -7 -5 -6 -8 5 -8 9 0 21 -10 27 -22 6 -13 11
-17 11 -10 1 6 12 12 25 12 24 0 54 26 42 37 -3 3 -6 1 -6 -5 0 -20 -25 -14
-48 11 -12 13 -22 26 -22 30 0 14 43 6 56 -10 13 -17 14 -17 8 0 -5 12 -1 17
14 17 11 0 26 8 33 18 7 9 10 14 5 10 -5 -4 -26 2 -47 12 -42 22 -49 24 -49
13z"/>
<path d="M1406 672 c-10 -30 3 -50 37 -58 23 -5 34 -2 44 12 20 27 16 41 -14
47 -16 3 -35 8 -45 12 -11 4 -18 0 -22 -13z m60 -12 c24 -10 26 -12 12 -26
-11 -11 -21 -13 -41 -5 -27 10 -33 21 -20 34 9 9 17 9 49 -3z"/>
<path d="M206 665 c-20 -21 -20 -29 0 -50 27 -27 87 2 82 39 -4 27 -58 34 -82
11z m69 -5 c10 -16 -15 -40 -41 -40 -17 0 -24 6 -24 19 0 28 51 44 65 21z"/>
<path d="M700 655 c-7 -9 -11 -17 -9 -20 3 -2 10 5 17 15 14 24 10 26 -8 5z"/>
<path d="M931 665 c0 -5 6 -21 14 -35 8 -14 14 -20 14 -15 0 6 -6 21 -14 35
-8 14 -14 21 -14 15z"/>
<path d="M981 653 c7 -12 15 -20 18 -17 3 2 -3 12 -13 22 -17 16 -18 16 -5 -5z"/>
<path d="M843 590 c0 -41 2 -58 4 -37 2 20 2 54 0 75 -2 20 -4 3 -4 -38z"/>
<path d="M708 628 c-28 -43 -40 -71 -29 -64 11 7 55 86 47 86 -2 0 -10 -10
-18 -22z"/>
<path d="M736 635 c-9 -26 -7 -32 5 -12 6 10 9 21 6 23 -2 3 -7 -2 -11 -11z"/>
<path d="M823 615 c0 -22 2 -30 4 -17 2 12 2 30 0 40 -3 9 -5 -1 -4 -23z"/>
<path d="M863 615 c0 -22 2 -30 4 -17 2 12 2 30 0 40 -3 9 -5 -1 -4 -23z"/>
<path d="M979 613 c12 -23 26 -45 32 -48 13 -8 -12 41 -36 70 -11 14 -10 7 4
-22z"/>
<path d="M284 585 c-13 -20 -24 -25 -41 -22 -13 2 -23 0 -23 -4 0 -5 8 -9 18
-9 28 0 34 -11 14 -27 -19 -16 -15 -15 41 7 42 16 50 30 12 22 -29 -5 -32 4
-8 30 9 10 14 21 10 24 -3 3 -13 -6 -23 -21z"/>
<path d="M1380 605 c0 -7 70 -35 84 -34 6 0 -7 9 -29 19 -42 20 -55 23 -55 15z"/>
<path d="M1117 584 c-4 -4 -7 -18 -7 -30 0 -18 -4 -22 -17 -18 -17 5 -17 5 0
-6 9 -6 17 -19 18 -28 0 -9 3 -12 5 -5 3 7 18 10 42 6 l37 -6 -26 29 c-15 16
-31 37 -36 47 -5 10 -12 14 -16 11z"/>
<path d="M1393 526 c38 -37 63 -51 33 -17 -17 19 -17 20 11 24 27 4 26 4 -5 6
-18 0 -43 6 -54 12 -12 6 -5 -4 15 -25z"/>
<path d="M498 543 c7 -3 16 -2 19 1 4 3 -2 6 -13 5 -11 0 -14 -3 -6 -6z"/>
<path d="M460 535 c0 -11 63 -36 83 -32 19 4 19 4 -4 6 -14 0 -34 8 -45 16
-19 14 -34 19 -34 10z"/>
<path d="M340 511 c16 -32 -4 -53 -25 -25 -8 10 -15 14 -15 9 0 -6 5 -16 11
-22 8 -8 7 -13 -2 -18 -7 -5 -17 -1 -24 8 -19 27 -27 20 -9 -8 16 -24 17 -25
46 -7 46 27 51 37 28 63 l-21 24 11 -24z"/>
<path d="M1347 500 c4 -14 -1 -22 -18 -29 -22 -8 -21 -9 19 -20 61 -17 67 -11
35 31 -31 42 -44 48 -36 18z m33 -35 c14 -16 10 -18 -14 -9 -9 3 -16 10 -16
15 0 14 16 11 30 -6z"/>
<path d="M536 481 c-7 -11 39 -31 72 -30 20 1 22 2 7 6 -69 14 -69 14 -54 24
12 7 11 9 -3 9 -9 0 -19 -4 -22 -9z"/>
<path d="M363 449 c-7 -7 -9 -25 -6 -42 5 -23 3 -29 -8 -25 -8 3 -13 11 -11
17 1 6 -2 11 -8 11 -12 0 -13 -10 -1 -28 5 -8 17 -12 27 -10 15 3 18 11 16 36
-1 23 2 32 13 32 9 0 15 -10 16 -22 1 -18 2 -19 6 -5 4 17 -12 47 -26 47 -4 0
-12 -5 -18 -11z"/>
<path d="M1290 442 c0 -6 8 -13 17 -16 15 -6 15 -8 0 -23 -14 -14 -19 -14 -34
-3 -10 8 -3 -2 16 -23 33 -35 58 -45 31 -12 -19 22 2 44 25 25 8 -7 15 -8 15
-2 0 5 -16 22 -35 36 -19 15 -35 23 -35 18z"/>
<path d="M458 349 c-10 -10 -13 -21 -8 -24 5 -3 6 -13 3 -23 -5 -14 -3 -15 7
-5 8 8 19 9 29 3 13 -7 16 -3 16 16 -1 14 -8 31 -16 38 -12 11 -17 10 -31 -5z"/>
<path d="M1180 350 c-22 -22 -11 -55 18 -56 14 0 21 4 18 11 -2 7 -1 16 3 21
5 5 1 16 -8 24 -14 13 -18 13 -31 0z"/>
<path d="M575 296 c-9 -14 -15 -33 -13 -43 4 -20 35 -30 49 -16 6 6 1 9 -13 9
-19 -1 -22 4 -20 24 4 36 19 47 43 31 18 -10 20 -10 17 1 -8 24 -46 21 -63 -6z"/>
<path d="M1108 270 c9 -22 20 -40 25 -40 4 0 -2 18 -13 40 -26 52 -33 52 -12
0z"/>
<path d="M652 279 c-5 -13 -13 -35 -17 -49 -11 -38 10 -12 24 29 13 39 6 57
-7 20z"/>
<path d="M1038 288 c-9 -23 3 -38 28 -38 15 0 24 -6 24 -16 0 -11 -6 -15 -20
-11 -20 5 -28 -7 -11 -17 18 -11 41 6 41 30 0 19 -5 24 -25 24 -16 0 -25 6
-25 16 0 11 6 14 21 9 15 -5 19 -4 15 4 -10 15 -43 14 -48 -1z"/>
<path d="M672 250 c-12 -47 -5 -60 28 -59 10 0 7 4 -7 11 -18 9 -20 14 -11 39
5 16 8 34 6 41 -3 7 -10 -8 -16 -32z"/>
<path d="M967 273 c-25 -24 9 -100 40 -89 8 3 17 6 19 6 2 0 4 11 4 25 0 25
-14 33 -25 15 -3 -5 -1 -10 4 -10 6 0 11 -5 11 -11 0 -6 -10 -9 -22 -7 -18 2
-23 10 -23 33 0 25 4 30 23 29 12 0 22 3 22 8 0 10 -44 11 -53 1z"/>
<path d="M736 229 c-8 -48 -10 -44 27 -53 19 -4 26 -3 22 4 -3 5 -15 10 -26
10 -28 0 -19 23 12 31 23 7 23 7 2 8 -33 1 -29 29 5 34 26 4 26 4 -4 6 -29 1
-32 -2 -38 -40z"/>
<path d="M941 240 l-1 -35 -25 30 -24 30 1 -50 c1 -46 1 -47 7 -15 l7 35 19
-35 20 -35 3 28 c2 15 1 39 -1 55 -3 23 -4 22 -6 -8z"/>
<path d="M814 220 c1 -41 3 -45 26 -45 22 0 25 4 26 40 l1 40 -4 -38 c-6 -53
-35 -48 -44 8 l-7 40 2 -45z"/>
<path d="M865 1640 c10 -15 103 -39 196 -49 136 -15 203 -52 215 -118 6 -30
10 -33 41 -33 64 0 121 -46 166 -135 15 -27 26 -46 27 -42 1 17 -44 94 -74
125 -39 42 -76 62 -115 62 -24 0 -31 5 -36 29 -7 35 -48 75 -97 95 -21 9 -87
22 -146 30 -60 8 -126 22 -146 30 -20 8 -34 11 -31 6z"/>
<path d="M1520 1221 c0 -6 4 -13 10 -16 6 -3 7 1 4 9 -7 18 -14 21 -14 7z"/>
<path d="M1549 1172 c5 -10 27 -34 48 -53 37 -34 38 -35 35 -98 -2 -35 4 -106
13 -159 10 -52 15 -117 12 -145 -4 -50 -4 -50 11 -22 13 26 13 39 -8 142 -13
66 -21 142 -19 181 l2 67 -52 53 c-29 30 -48 45 -42 34z"/>
<path d="M1607 625 c-32 -28 -37 -37 -28 -52 10 -17 10 -17 11 2 0 10 14 34
32 52 41 42 34 42 -15 -2z"/>
<path d="M78 602 c21 -20 23 -27 13 -48 -30 -67 0 -126 116 -228 l88 -78 -87
83 c-116 112 -140 165 -103 229 19 33 18 40 -2 40 -9 0 -24 6 -33 13 -9 6 -5
2 8 -11z"/>
<path d="M1586 519 c-8 -42 0 -50 9 -9 4 17 5 34 2 36 -2 3 -7 -10 -11 -27z"/>
<path d="M1566 453 c-6 -14 -5 -15 5 -6 7 7 10 15 7 18 -3 3 -9 -2 -12 -12z"/>
<path d="M1455 324 l-80 -76 83 72 c72 63 90 81 80 80 -2 0 -39 -35 -83 -76z"/>
<path d="M314 196 c19 -40 25 -44 66 -48 25 -3 54 -8 65 -12 11 -3 7 0 -10 8
-16 8 -44 15 -61 16 -25 0 -34 6 -44 30 -7 16 -18 34 -25 40 -6 5 -3 -10 9
-34z"/>
<path d="M1362 227 c-6 -7 -15 -25 -21 -40 -6 -15 -17 -27 -25 -27 -21 0 -109
-30 -120 -41 -6 -5 16 0 47 11 31 11 64 20 74 20 12 0 26 16 39 45 22 48 23
53 6 32z"/>
<path d="M520 99 c86 -51 160 -79 210 -77 43 1 43 1 -14 8 -38 5 -88 23 -144
51 -106 55 -124 61 -52 18z"/>
<path d="M1095 64 c-33 -18 -55 -34 -50 -34 12 0 115 58 115 65 0 7 2 8 -65
-31z"/>
<path d="M805 49 c-34 -21 -29 -25 10 -7 21 10 32 7 74 -15 56 -31 66 -32 112
-13 34 14 33 14 -26 9 -53 -4 -64 -2 -98 21 -21 14 -39 26 -40 25 -1 0 -15 -9
-32 -20z"/>
</g>
</svg>
